<?xml version="1.0" encoding="UTF-8"?>
<svg id="Layer_2" data-name="Layer 2" xmlns="http://www.w3.org/2000/svg" viewBox="0 0 527.02 138.21">
  <g id="Layer_1-2" data-name="Layer 1">
    <g>
      <polygon points="0 9.55 46.28 9.55 42.42 24.97 17.08 24.97 17.08 39.84 40.77 39.84 40.77 55.28 17.08 55.28 17.08 68.85 43.89 68.85 47.75 84.11 0 84.11 0 9.55 0 9.55" fill="#fff" fill-rule="evenodd"/>
      <polygon points="96.96 84.11 79.88 84.11 79.88 49.76 54.54 9.55 73.27 9.55 88.15 33.97 104.12 9.55 122.67 9.55 96.96 49.39 96.96 84.11 96.96 84.11" fill="#fff" fill-rule="evenodd"/>
      <polygon points="132.03 9.55 178.31 9.55 174.45 24.97 149.11 24.97 149.11 39.84 172.8 39.84 172.8 55.28 149.11 55.28 149.11 68.85 175.93 68.85 179.78 84.11 132.03 84.11 132.03 9.55 132.03 9.55" fill="#fff" fill-rule="evenodd"/>
      <path d="M211.09,82.26c-4.59-2.08-8.54-4.86-11.87-8.35-3.34-3.48-5.94-7.55-7.82-12.21-1.88-4.65-2.82-9.61-2.82-14.87s.94-10.04,2.82-14.69c1.88-4.65,4.48-8.72,7.82-12.22,3.33-3.49,7.28-6.26,11.87-8.35,4.58-2.08,9.51-3.13,14.78-3.13,10.15,0,19.39,4.77,27.73,14.32l-10.28,10.83c-3.56-3.91-6.68-6.53-9.37-7.88-2.69-1.35-5.39-2.03-8.07-2.03s-5.24.59-7.63,1.75c-2.39,1.17-4.5,2.75-6.34,4.77-1.84,2.02-3.27,4.44-4.31,7.26-1.05,2.82-1.57,5.94-1.57,9.36s.52,6.55,1.57,9.36c1.03,2.82,2.47,5.23,4.31,7.26,1.84,2.02,3.95,3.61,6.34,4.77,2.39,1.17,4.93,1.74,7.63,1.74s5.66-.66,8.53-2c2.88-1.35,6.21-3.86,10.01-7.54l10.65,11.02c-9.3,9.3-19.04,13.96-29.19,13.96-5.27,0-10.2-1.05-14.78-3.13h0Z" fill="#fff" fill-rule="evenodd"/>
      <path d="M301.16,66.48c-1.36.61-2.85,1.16-4.5,1.65-1.66.49-3.34.72-5.05.72s-3.38-.26-4.97-.81c-1.59-.55-3.18-1.13-4.77-1.75l-7.34,17.82h-17.63L291.61,0l33.6,84.11h-17.07l-6.98-17.63h0ZM286.28,52.14h0c.61.26,1.49.62,2.66,1.1,1.17.5,2.06.74,2.67.74s1.46-.24,2.56-.74c1.11-.48,1.95-.85,2.58-1.1l-5.14-13.04-5.33,13.04h0Z" fill="#fff" fill-rule="evenodd"/>
      <polygon points="364.69 25.16 364.69 84.11 347.62 84.11 347.62 25.16 331.28 25.16 327.41 9.91 384.71 9.91 381.04 25.16 364.69 25.16 364.69 25.16" fill="#fff" fill-rule="evenodd"/>
      <path d="M414.19,82.26c-4.59-2.08-8.55-4.86-11.87-8.35-3.34-3.48-5.95-7.55-7.82-12.21-1.88-4.65-2.83-9.61-2.83-14.87s.94-10.04,2.83-14.69c1.87-4.65,4.48-8.72,7.82-12.22,3.32-3.49,7.28-6.26,11.87-8.35,4.58-2.08,9.51-3.13,14.77-3.13,10.15,0,19.4,4.77,27.72,14.32l-10.28,10.83c-3.56-3.91-6.67-6.53-9.37-7.88-2.69-1.35-5.38-2.03-8.07-2.03s-5.24.59-7.62,1.75c-2.39,1.17-4.5,2.75-6.34,4.77-1.83,2.02-3.27,4.44-4.32,7.26-1.04,2.82-1.55,5.94-1.55,9.36s.51,6.55,1.55,9.36c1.05,2.82,2.49,5.23,4.32,7.26,1.83,2.02,3.95,3.61,6.34,4.77,2.38,1.17,4.92,1.74,7.62,1.74s5.66-.66,8.53-2c2.87-1.35,6.21-3.86,10-7.54l10.66,11.02c-9.3,9.3-19.04,13.96-29.19,13.96-5.26,0-10.19-1.05-14.77-3.13h0Z" fill="#fff" fill-rule="evenodd"/>
      <polygon points="509.95 55.28 485.71 55.28 485.71 84.11 468.63 84.11 468.63 9.55 485.71 9.55 485.71 40.03 509.95 40.03 509.95 9.55 527.02 9.55 527.02 84.11 509.95 84.11 509.95 55.28 509.95 55.28" fill="#fff" fill-rule="evenodd"/>
      <polygon points="91.54 131.43 0 131.43 0 129.11 91.54 129.11 91.54 131.43 91.54 131.43" fill="#fff" fill-rule="evenodd"/>
      <polygon points="527.02 131.43 435.48 131.43 435.48 129.11 527.02 129.11 527.02 131.43 527.02 131.43" fill="#fff" fill-rule="evenodd"/>
      <polygon points="107.57 119.42 107.57 137.2 102.42 137.2 102.42 119.42 97.49 119.42 96.32 114.82 113.61 114.82 112.5 119.42 107.57 119.42 107.57 119.42" fill="#fff" fill-rule="evenodd"/>
      <polygon points="130.41 128.51 123.1 128.51 123.1 137.2 117.94 137.2 117.94 114.71 123.1 114.71 123.1 123.91 130.41 123.91 130.41 114.71 135.56 114.71 135.56 137.2 130.41 137.2 130.41 128.51 130.41 128.51" fill="#fff" fill-rule="evenodd"/>
      <polygon points="141.21 114.71 155.18 114.71 154.01 119.37 146.37 119.37 146.37 123.86 153.51 123.86 153.51 128.51 146.37 128.51 146.37 132.61 154.45 132.61 155.62 137.2 141.21 137.2 141.21 114.71 141.21 114.71" fill="#fff" fill-rule="evenodd"/>
      <polygon points="189.25 119.42 189.25 137.2 184.1 137.2 184.1 119.42 179.17 119.42 178 114.82 195.3 114.82 194.19 119.42 189.25 119.42 189.25 119.42" fill="#fff" fill-rule="evenodd"/>
      <polygon points="212.09 128.51 204.77 128.51 204.77 137.2 199.62 137.2 199.62 114.71 204.77 114.71 204.77 123.91 212.09 123.91 212.09 114.71 217.24 114.71 217.24 137.2 212.09 137.2 212.09 128.51 212.09 128.51" fill="#fff" fill-rule="evenodd"/>
      <polygon points="223.28 132.55 224.06 132.55 224.06 119.37 223.28 119.37 222.17 114.71 231.1 114.71 229.99 119.37 229.21 119.37 229.21 132.55 229.99 132.55 231.1 137.2 222.11 137.2 223.28 132.55 223.28 132.55" fill="#fff" fill-rule="evenodd"/>
      <path d="M247.97,135.69c-.76-.83-1.28-1.75-1.58-2.75l-.5-1.83c-.22-.78-.67-1.39-1.33-1.86-.67-.46-1.36-.68-2.11-.68h-1.33v8.7h-5.15v-22.55h7.43c1.25,0,2.36.19,3.32.58.97.39,1.77.91,2.44,1.55.67.65,1.18,1.38,1.52,2.22.35.83.53,1.69.53,2.58,0,.96-.23,1.86-.69,2.69-.46.83-1.08,1.56-1.85,2.19.88.78,1.47,1.59,1.77,2.44.29.85.6,1.79.89,2.82.1.4.32.79.63,1.16.31.37.9.82,1.74,1.34l-2.43,3.93c-1.44-.85-2.54-1.68-3.3-2.52h0ZM241.12,119.2h0v4.77h2.66c.56,0,1.06-.22,1.5-.65.44-.43.67-.99.67-1.71s-.23-1.28-.69-1.74c-.46-.46-1.03-.67-1.69-.67h-2.44Z" fill="#fff" fill-rule="evenodd"/>
      <path d="M261.1,136.78c-1.31-.56-2.67-1.49-4.07-2.74l3.27-3.27c1.07.84,1.97,1.43,2.68,1.74.73.31,1.45.47,2.19.47,1.15-.03,1.92-.25,2.33-.64.4-.39.63-.83.66-1.36,0-.34-.1-.63-.28-.92-.19-.28-.41-.51-.69-.71-.28-.21-.58-.4-.91-.55-.33-.18-.63-.33-.89-.48-.84-.4-1.71-.82-2.59-1.24-.88-.43-1.69-.92-2.42-1.51-.74-.56-1.34-1.24-1.82-2.01-.47-.78-.72-1.72-.72-2.83,0-.96.2-1.84.61-2.63.41-.79.95-1.47,1.64-2.02.68-.55,1.46-.99,2.36-1.28.88-.29,1.82-.44,2.82-.44,1.29,0,2.55.27,3.77.83,1.21.56,2.45,1.46,3.72,2.71l-3.05,3.21c-1.12-.92-1.95-1.56-2.52-1.9-.58-.36-1.19-.51-1.86-.47-.55.03-.99.14-1.3.3-.32.17-.56.35-.72.56-.17.2-.28.4-.33.61-.05.2-.08.35-.08.46.08.6.55,1.15,1.43,1.67.51.3,1.07.6,1.67.9.6.3,1.21.61,1.83.94.67.34,1.33.69,1.99,1.08.65.39,1.24.86,1.79,1.42.54.54.97,1.18,1.31,1.91.33.72.51,1.55.51,2.47,0,.85-.17,1.67-.51,2.46-.34.79-.84,1.49-1.54,2.1-.69.62-1.55,1.1-2.57,1.47-1.03.37-2.22.55-3.59.55-1.44,0-2.82-.28-4.13-.87h0Z" fill="#fff" fill-rule="evenodd"/>
      <polygon points="288.45 119.42 288.45 137.2 283.28 137.2 283.28 119.42 278.36 119.42 277.19 114.82 294.49 114.82 293.38 119.42 288.45 119.42 288.45 119.42" fill="#fff" fill-rule="evenodd"/>
      <polygon points="309.9 137.2 304.74 137.2 304.74 126.84 297.09 114.71 302.74 114.71 307.24 122.08 312.05 114.71 317.65 114.71 309.9 126.73 309.9 137.2 309.9 137.2" fill="#fff" fill-rule="evenodd"/>
      <path d="M346.11,136.66c-1.38-.63-2.58-1.47-3.58-2.53-1.01-1.04-1.8-2.27-2.36-3.68-.57-1.41-.85-2.91-.85-4.49s.28-3.03.85-4.44c.56-1.4,1.35-2.62,2.36-3.68,1.01-1.06,2.2-1.89,3.58-2.52,1.38-.62,2.87-.94,4.46-.94,3.06,0,5.86,1.43,8.37,4.32l-3.11,3.27c-1.07-1.17-2-1.98-2.82-2.38-.82-.4-1.63-.61-2.44-.61s-1.58.18-2.3.52c-.72.35-1.35.83-1.91,1.44-.56.61-.99,1.34-1.3,2.19-.31.85-.48,1.79-.48,2.82s.17,1.98.48,2.83c.31.85.74,1.58,1.3,2.18.56.61,1.19,1.09,1.91,1.44.72.35,1.49.52,2.3.52s1.71-.2,2.58-.6c.86-.4,1.86-1.17,3.02-2.27l3.21,3.33c-2.8,2.81-5.75,4.22-8.81,4.22-1.59,0-3.08-.32-4.46-.94h0Z" fill="#fff" fill-rule="evenodd"/>
      <path d="M375.65,135.69c-.76-.83-1.29-1.75-1.59-2.75l-.49-1.83c-.23-.78-.67-1.39-1.33-1.86-.66-.46-1.37-.68-2.11-.68h-1.33v8.7h-5.16v-22.55h7.43c1.26,0,2.36.19,3.33.58.97.39,1.77.91,2.44,1.55.66.65,1.18,1.38,1.53,2.22.35.83.53,1.69.53,2.58,0,.96-.24,1.86-.7,2.69-.46.83-1.07,1.56-1.86,2.19.89.78,1.47,1.59,1.77,2.44.3.85.58,1.79.88,2.82.12.4.33.79.64,1.16.31.37.89.82,1.75,1.34l-2.44,3.93c-1.45-.85-2.54-1.68-3.29-2.52h0ZM368.8,119.2h0v4.77h2.65c.56,0,1.06-.22,1.5-.65.44-.43.67-.99.67-1.71s-.24-1.28-.7-1.74c-.46-.46-1.02-.67-1.69-.67h-2.44Z" fill="#fff" fill-rule="evenodd"/>
      <polygon points="385.63 114.71 399.61 114.71 398.45 119.37 390.79 119.37 390.79 123.86 397.94 123.86 397.94 128.51 390.79 128.51 390.79 132.61 398.88 132.61 400.05 137.2 385.63 137.2 385.63 114.71 385.63 114.71" fill="#fff" fill-rule="evenodd"/>
      <polygon points="421.66 137.2 417.28 125.79 412.96 137.2 408.64 137.2 404.2 114.65 409.63 114.65 411.86 126.18 417.5 112.33 422.88 126.18 425.26 114.65 430.69 114.65 426.04 137.2 421.66 137.2 421.66 137.2" fill="#fff" fill-rule="evenodd"/>
    </g>
  </g>
</svg>